# xmcd
#
# Track frame offsets: 
#        150
#        14385
#        31087
#        47052
#        65612
#        79400
#        95952
#        132905
#        148132
#        174567
#        200830
#        222025
#        241277
#        262205
#
# Disc length: 3706 seconds
#
# Revision: 0
# Processed by: cddbd v1.5.2PL0 Copyright (c) Steve Scherf et al.
# Submitted via: ExactAudioCopy v0.99pb4
#
DISCID=d80e780e
DTITLE=Hot Water - Hot Water Company
DYEAR=1993
DGENRE=Blues
TTITLE0=Highest Quality Man
TTITLE1=Nic
TTITLE2=Ile?
TTITLE3=Green Train
TTITLE4=I Can't Get Mad Because Of You
TTITLE5=Nic #2
TTITLE6=In My Time Of Dying
TTITLE7=Spiewamy Po Polsku (Singing In Polish)
TTITLE8=Saigon
TTITLE9=States Of Weather
TTITLE10=Heritage
TTITLE11=Bax 4'12
TTITLE12=7th Beer Song
TTITLE13=Blue Colour
EXTD=
EXTT0=
EXTT1=
EXTT2=
EXTT3=
EXTT4=
EXTT5=
EXTT6=
EXTT7=
EXTT8=
EXTT9=
EXTT10=
EXTT11=
EXTT12=
EXTT13=
PLAYORDER=
